# xmcd CD database file
#
# Track frame offsets:
#	150
#	22644
#	37127
#	60077
#	79039
#	91219
#	114192
#	129049
#	151107
#	172130
#	186972
#	203218
#	233787
#	251052
#	268119
#	282003
#
# Disc length: 4232 seconds
#
# Revision: 2
# Processed by: cddbd v1.5.2PL0 Copyright (c) Steve Scherf et al.
# Submitted via: jetAudio 7
#
DISCID=c4108610
DTITLE=Various Artist - Gershwin
DYEAR=2003
DGENRE=Jazz
TTITLE0=Ella Fitzgerald and Louis Armstrong - Summertime
TTITLE1=Elton John - Someone To Watch Over Me
TTITLE2=Larry Adler - Rhapsody In Blue
TTITLE3=Billie Holiday - They Can't Take That Away From Me
TTITLE4=Bing Crosby - They All Laughed
TTITLE5=Elvis Costello - But Not For Me
TTITLE6=Sarah Brightman - In The Mandarin's Orchid Garden
TTITLE7=Ella Fitzgerald - Embraceable You
TTITLE8=Jablonski/RPO/Ashkenazy - Piano Concerto In F 2nd Movement
TTITLE9=Oscar Peterson - Strike Up The Band
TTITLE10=Shirley Horn - Our Love Is Here To Stay
TTITLE11=Boston Pops Orchestra/Fiedler - Funny Face - Overture
TTITLE12=Sarah Vaughan - A Foggy Day
TTITLE13=The Cleveland Orchestra/Maazel - Cuban Overture
TTITLE14=Morgana King - For You, For Me, Forever More
TTITLE15=Boston Pop Orchestra/Fiedler - Oh Kay! Overture
EXTD=
EXTT0=
EXTT1=
EXTT2=
EXTT3=
EXTT4=
EXTT5=
EXTT6=
EXTT7=
EXTT8=
EXTT9=
EXTT10=
EXTT11=
EXTT12=
EXTT13=
EXTT14=
EXTT15=
PLAYORDER=
